<?xml version="1.0" standalone="no"?><!DOCTYPE svg PUBLIC "-//W3C//DTD SVG 1.1//EN" "http://www.w3.org/Graphics/SVG/1.1/DTD/svg11.dtd"><svg width="160" height="165" version="1.1" xmlns="http://www.w3.org/2000/svg" xmlns:xlink="http://www.w3.org/1999/xlink"><defs xmlns="http://www.w3.org/1999/xhtml"><style type="text/css"><![CDATA[
.bar { fill: rgb(127, 205, 187); }
.bar:hover { fill: rgb(44, 127, 184); }
.axis { font: 10px sans-serif; }
.axis path, .axis line { fill: none; stroke: rgb(0, 0, 0); shape-rendering: crispedges; }
.confint { pointer-events: none; }
.x.axis { font: 40px sans-serif; pointer-events: none; }
.x.axis path { display: none; }]]></style></defs><g transform="translate(13, 2)"><g class="y axis"><g class="tick" style="opacity: 1;" transform="translate(0,145)"><line x2="-2" y2="0"/><text dy=".32em" style="text-anchor: end;" x="-5" y="0">0</text></g><g class="tick" style="opacity: 1;" transform="translate(0,127.3170731707317)"><line x2="-2" y2="0"/><text dy=".32em" style="text-anchor: end;" x="-5" y="0">1</text></g><g class="tick" style="opacity: 1;" transform="translate(0,109.63414634146342)"><line x2="-2" y2="0"/><text dy=".32em" style="text-anchor: end;" x="-5" y="0">2</text></g><g class="tick" style="opacity: 1;" transform="translate(0,91.95121951219511)"><line x2="-2" y2="0"/><text dy=".32em" style="text-anchor: end;" x="-5" y="0">3</text></g><g class="tick" style="opacity: 1;" transform="translate(0,74.26829268292683)"><line x2="-2" y2="0"/><text dy=".32em" style="text-anchor: end;" x="-5" y="0">4</text></g><g class="tick" style="opacity: 1;" transform="translate(0,56.58536585365852)"><line x2="-2" y2="0"/><text dy=".32em" style="text-anchor: end;" x="-5" y="0">5</text></g><g class="tick" style="opacity: 1;" transform="translate(0,38.90243902439023)"><line x2="-2" y2="0"/><text dy=".32em" style="text-anchor: end;" x="-5" y="0">6</text></g><g class="tick" style="opacity: 1;" transform="translate(0,21.219512195121936)"><line x2="-2" y2="0"/><text dy=".32em" style="text-anchor: end;" x="-5" y="0">7</text></g><g class="tick" style="opacity: 1;" transform="translate(0,3.5365853658536457)"><line x2="-2" y2="0"/><text dy=".32em" style="text-anchor: end;" x="-5" y="0">8</text></g><path class="domain" d="M-2,0H0V145H-2"/><text transform="rotate(-90)" y="6" dy=".6em" style="text-anchor: end;">y</text></g><rect class="bar" x="7" width="62" y="56.58536585365852" height="88.41463414634148"/><rect class="bar" x="76" width="62" y="12.3780487804878" height="132.6219512195122"/><g class="x axis" transform="translate(0, 145)"><g class="tick" style="opacity: 1;" transform="translate(38,0)"><line y2="2" x2="0"/><text dy=".71em" style="text-anchor: middle;" y="-40" x="0">C</text></g><g class="tick" style="opacity: 1;" transform="translate(107,0)"><line y2="2" x2="0"/><text dy=".71em" style="text-anchor: middle;" y="-40" x="0">P</text></g><path class="domain" d="M0,2V0H145V2"/></g><g class="confint"><g><line stroke="black" stroke-width="0.75px" x1="38" x2="38" y1="74.26829268292683" y2="38.90243902439023"/><line stroke="black" stroke-width="0.75px" x1="11" x2="65" y1="38.90243902439023" y2="38.90243902439023"/><line stroke="black" stroke-width="0.75px" x1="11" x2="65" y1="74.26829268292683" y2="74.26829268292683"/></g><g><line stroke="black" stroke-width="0.75px" x1="107" x2="107" y1="38.90243902439023" y2="3.5365853658536457"/><line stroke="black" stroke-width="0.75px" x1="80" x2="134" y1="3.5365853658536457" y2="3.5365853658536457"/><line stroke="black" stroke-width="0.75px" x1="80" x2="134" y1="38.90243902439023" y2="38.90243902439023"/></g></g></g></svg>